<?xml version="1.0" encoding="UTF-8" standalone="no"?>
<!-- Created with Inkscape (http://www.inkscape.org/) -->

<svg
   xmlns:dc="http://purl.org/dc/elements/1.1/"
   xmlns:cc="http://creativecommons.org/ns#"
   xmlns:rdf="http://www.w3.org/1999/02/22-rdf-syntax-ns#"
   xmlns:svg="http://www.w3.org/2000/svg"
   xmlns="http://www.w3.org/2000/svg"
   xmlns:sodipodi="http://sodipodi.sourceforge.net/DTD/sodipodi-0.dtd"
   xmlns:inkscape="http://www.inkscape.org/namespaces/inkscape"
   id="svg2"
   version="1.1"
   inkscape:version="0.91 r13725"
   xml:space="preserve"
   width="1800"
   height="876.25"
   viewBox="0 0 1800 876.25"
   sodipodi:docname="statevalue_original.svg"><metadata
     id="metadata8"><rdf:RDF><cc:Work
         rdf:about=""><dc:format>image/svg+xml</dc:format><dc:type
           rdf:resource="http://purl.org/dc/dcmitype/StillImage" /><dc:title></dc:title></cc:Work></rdf:RDF></metadata><defs
     id="defs6" /><sodipodi:namedview
     pagecolor="#ffffff"
     bordercolor="#666666"
     borderopacity="1"
     objecttolerance="10"
     gridtolerance="10"
     guidetolerance="10"
     inkscape:pageopacity="0"
     inkscape:pageshadow="2"
     inkscape:window-width="1920"
     inkscape:window-height="1056"
     id="namedview4"
     showgrid="false"
     inkscape:zoom="0.20388889"
     inkscape:cx="900"
     inkscape:cy="438.125"
     inkscape:window-x="0"
     inkscape:window-y="24"
     inkscape:window-maximized="1"
     inkscape:current-layer="g10" /><g
     id="g10"
     inkscape:groupmode="layer"
     inkscape:label="ink_ext_XXXXXX"
     transform="matrix(1.25,0,0,-1.25,0,876.25)"><g
       id="g12"
       transform="scale(0.1,0.1)"><path
         d="m 0,0 14400,0 0,7012.5 L 0,7012.5 0,0 Z"
         style="fill:#ffffff;fill-opacity:1;fill-rule:nonzero;stroke:none"
         id="path14"
         inkscape:connector-curvature="0" /><path
         d="m 0,0 14400,0 0,7012.5 L 0,7012.5 0,0 Z"
         style="fill:#ffffff;fill-opacity:1;fill-rule:nonzero;stroke:none"
         id="path16"
         inkscape:connector-curvature="0" /><path
         d="m 1875,772.5 11160,0 0,5715 -11160,0 0,-5715 z"
         style="fill:#ffffff;fill-opacity:1;fill-rule:nonzero;stroke:none"
         id="path18"
         inkscape:connector-curvature="0" /><path
         d="m 1875,772.5 0,5715"
         style="fill:none;stroke:#dfdfdf;stroke-width:5.00250006;stroke-linecap:butt;stroke-linejoin:round;stroke-miterlimit:10;stroke-dasharray:none;stroke-opacity:1"
         id="path20"
         inkscape:connector-curvature="0" /><path
         d="m 2991,772.5 0,5715"
         style="fill:none;stroke:#dfdfdf;stroke-width:5.00250006;stroke-linecap:butt;stroke-linejoin:round;stroke-miterlimit:10;stroke-dasharray:none;stroke-opacity:1"
         id="path22"
         inkscape:connector-curvature="0" /><path
         d="m 4107,772.5 0,5715"
         style="fill:none;stroke:#dfdfdf;stroke-width:5.00250006;stroke-linecap:butt;stroke-linejoin:round;stroke-miterlimit:10;stroke-dasharray:none;stroke-opacity:1"
         id="path24"
         inkscape:connector-curvature="0" /><path
         d="m 5223,772.5 0,5715"
         style="fill:none;stroke:#dfdfdf;stroke-width:5.00250006;stroke-linecap:butt;stroke-linejoin:round;stroke-miterlimit:10;stroke-dasharray:none;stroke-opacity:1"
         id="path26"
         inkscape:connector-curvature="0" /><path
         d="m 6339,772.5 0,5715"
         style="fill:none;stroke:#dfdfdf;stroke-width:5.00250006;stroke-linecap:butt;stroke-linejoin:round;stroke-miterlimit:10;stroke-dasharray:none;stroke-opacity:1"
         id="path28"
         inkscape:connector-curvature="0" /><path
         d="m 7455,772.5 0,5715"
         style="fill:none;stroke:#dfdfdf;stroke-width:5.00250006;stroke-linecap:butt;stroke-linejoin:round;stroke-miterlimit:10;stroke-dasharray:none;stroke-opacity:1"
         id="path30"
         inkscape:connector-curvature="0" /><path
         d="m 8571,772.5 0,5715"
         style="fill:none;stroke:#dfdfdf;stroke-width:5.00250006;stroke-linecap:butt;stroke-linejoin:round;stroke-miterlimit:10;stroke-dasharray:none;stroke-opacity:1"
         id="path32"
         inkscape:connector-curvature="0" /><path
         d="m 9687,772.5 0,5715"
         style="fill:none;stroke:#dfdfdf;stroke-width:5.00250006;stroke-linecap:butt;stroke-linejoin:round;stroke-miterlimit:10;stroke-dasharray:none;stroke-opacity:1"
         id="path34"
         inkscape:connector-curvature="0" /><path
         d="m 10803,772.5 0,5715"
         style="fill:none;stroke:#dfdfdf;stroke-width:5.00250006;stroke-linecap:butt;stroke-linejoin:round;stroke-miterlimit:10;stroke-dasharray:none;stroke-opacity:1"
         id="path36"
         inkscape:connector-curvature="0" /><path
         d="m 11919,772.5 0,5715"
         style="fill:none;stroke:#dfdfdf;stroke-width:5.00250006;stroke-linecap:butt;stroke-linejoin:round;stroke-miterlimit:10;stroke-dasharray:none;stroke-opacity:1"
         id="path38"
         inkscape:connector-curvature="0" /><path
         d="m 13035,772.5 0,5715"
         style="fill:none;stroke:#dfdfdf;stroke-width:5.00250006;stroke-linecap:butt;stroke-linejoin:round;stroke-miterlimit:10;stroke-dasharray:none;stroke-opacity:1"
         id="path40"
         inkscape:connector-curvature="0" /><path
         d="m 13035,772.5 -11160,0"
         style="fill:none;stroke:#dfdfdf;stroke-width:5.00250006;stroke-linecap:butt;stroke-linejoin:round;stroke-miterlimit:10;stroke-dasharray:none;stroke-opacity:1"
         id="path42"
         inkscape:connector-curvature="0" /><path
         d="m 13035,1344 -11160,0"
         style="fill:none;stroke:#dfdfdf;stroke-width:5.00250006;stroke-linecap:butt;stroke-linejoin:round;stroke-miterlimit:10;stroke-dasharray:none;stroke-opacity:1"
         id="path44"
         inkscape:connector-curvature="0" /><path
         d="m 13035,1915.5 -11160,0"
         style="fill:none;stroke:#dfdfdf;stroke-width:5.00250006;stroke-linecap:butt;stroke-linejoin:round;stroke-miterlimit:10;stroke-dasharray:none;stroke-opacity:1"
         id="path46"
         inkscape:connector-curvature="0" /><path
         d="m 13035,2487 -11160,0"
         style="fill:none;stroke:#dfdfdf;stroke-width:5.00250006;stroke-linecap:butt;stroke-linejoin:round;stroke-miterlimit:10;stroke-dasharray:none;stroke-opacity:1"
         id="path48"
         inkscape:connector-curvature="0" /><path
         d="m 13035,3058.5 -11160,0"
         style="fill:none;stroke:#dfdfdf;stroke-width:5.00250006;stroke-linecap:butt;stroke-linejoin:round;stroke-miterlimit:10;stroke-dasharray:none;stroke-opacity:1"
         id="path50"
         inkscape:connector-curvature="0" /><path
         d="m 13035,3630 -11160,0"
         style="fill:none;stroke:#dfdfdf;stroke-width:5.00250006;stroke-linecap:butt;stroke-linejoin:round;stroke-miterlimit:10;stroke-dasharray:none;stroke-opacity:1"
         id="path52"
         inkscape:connector-curvature="0" /><path
         d="m 13035,4201.5 -11160,0"
         style="fill:none;stroke:#dfdfdf;stroke-width:5.00250006;stroke-linecap:butt;stroke-linejoin:round;stroke-miterlimit:10;stroke-dasharray:none;stroke-opacity:1"
         id="path54"
         inkscape:connector-curvature="0" /><path
         d="m 13035,4773 -11160,0"
         style="fill:none;stroke:#dfdfdf;stroke-width:5.00250006;stroke-linecap:butt;stroke-linejoin:round;stroke-miterlimit:10;stroke-dasharray:none;stroke-opacity:1"
         id="path56"
         inkscape:connector-curvature="0" /><path
         d="m 13035,5344.5 -11160,0"
         style="fill:none;stroke:#dfdfdf;stroke-width:5.00250006;stroke-linecap:butt;stroke-linejoin:round;stroke-miterlimit:10;stroke-dasharray:none;stroke-opacity:1"
         id="path58"
         inkscape:connector-curvature="0" /><path
         d="m 13035,5916 -11160,0"
         style="fill:none;stroke:#dfdfdf;stroke-width:5.00250006;stroke-linecap:butt;stroke-linejoin:round;stroke-miterlimit:10;stroke-dasharray:none;stroke-opacity:1"
         id="path60"
         inkscape:connector-curvature="0" /><path
         d="m 13035,6487.5 -11160,0"
         style="fill:none;stroke:#dfdfdf;stroke-width:5.00250006;stroke-linecap:butt;stroke-linejoin:round;stroke-miterlimit:10;stroke-dasharray:none;stroke-opacity:1"
         id="path62"
         inkscape:connector-curvature="0" /><path
         d="m 1875,772.5 11160,0"
         style="fill:none;stroke:#262626;stroke-width:5.00250006;stroke-linecap:square;stroke-linejoin:round;stroke-miterlimit:10;stroke-dasharray:none;stroke-opacity:1"
         id="path64"
         inkscape:connector-curvature="0" /><path
         d="m 1875,6487.5 11160,0"
         style="fill:none;stroke:#262626;stroke-width:5.00250006;stroke-linecap:square;stroke-linejoin:round;stroke-miterlimit:10;stroke-dasharray:none;stroke-opacity:1"
         id="path66"
         inkscape:connector-curvature="0" /><path
         d="m 1875,772.5 0,111.602"
         style="fill:none;stroke:#262626;stroke-width:5.00250006;stroke-linecap:square;stroke-linejoin:round;stroke-miterlimit:10;stroke-dasharray:none;stroke-opacity:1"
         id="path68"
         inkscape:connector-curvature="0" /><path
         d="m 2991,772.5 0,111.602"
         style="fill:none;stroke:#262626;stroke-width:5.00250006;stroke-linecap:square;stroke-linejoin:round;stroke-miterlimit:10;stroke-dasharray:none;stroke-opacity:1"
         id="path70"
         inkscape:connector-curvature="0" /><path
         d="m 4107,772.5 0,111.602"
         style="fill:none;stroke:#262626;stroke-width:5.00250006;stroke-linecap:square;stroke-linejoin:round;stroke-miterlimit:10;stroke-dasharray:none;stroke-opacity:1"
         id="path72"
         inkscape:connector-curvature="0" /><path
         d="m 5223,772.5 0,111.602"
         style="fill:none;stroke:#262626;stroke-width:5.00250006;stroke-linecap:square;stroke-linejoin:round;stroke-miterlimit:10;stroke-dasharray:none;stroke-opacity:1"
         id="path74"
         inkscape:connector-curvature="0" /><path
         d="m 6339,772.5 0,111.602"
         style="fill:none;stroke:#262626;stroke-width:5.00250006;stroke-linecap:square;stroke-linejoin:round;stroke-miterlimit:10;stroke-dasharray:none;stroke-opacity:1"
         id="path76"
         inkscape:connector-curvature="0" /><path
         d="m 7455,772.5 0,111.602"
         style="fill:none;stroke:#262626;stroke-width:5.00250006;stroke-linecap:square;stroke-linejoin:round;stroke-miterlimit:10;stroke-dasharray:none;stroke-opacity:1"
         id="path78"
         inkscape:connector-curvature="0" /><path
         d="m 8571,772.5 0,111.602"
         style="fill:none;stroke:#262626;stroke-width:5.00250006;stroke-linecap:square;stroke-linejoin:round;stroke-miterlimit:10;stroke-dasharray:none;stroke-opacity:1"
         id="path80"
         inkscape:connector-curvature="0" /><path
         d="m 9687,772.5 0,111.602"
         style="fill:none;stroke:#262626;stroke-width:5.00250006;stroke-linecap:square;stroke-linejoin:round;stroke-miterlimit:10;stroke-dasharray:none;stroke-opacity:1"
         id="path82"
         inkscape:connector-curvature="0" /><path
         d="m 10803,772.5 0,111.602"
         style="fill:none;stroke:#262626;stroke-width:5.00250006;stroke-linecap:square;stroke-linejoin:round;stroke-miterlimit:10;stroke-dasharray:none;stroke-opacity:1"
         id="path84"
         inkscape:connector-curvature="0" /><path
         d="m 11919,772.5 0,111.602"
         style="fill:none;stroke:#262626;stroke-width:5.00250006;stroke-linecap:square;stroke-linejoin:round;stroke-miterlimit:10;stroke-dasharray:none;stroke-opacity:1"
         id="path86"
         inkscape:connector-curvature="0" /><path
         d="m 13035,772.5 0,111.602"
         style="fill:none;stroke:#262626;stroke-width:5.00250006;stroke-linecap:square;stroke-linejoin:round;stroke-miterlimit:10;stroke-dasharray:none;stroke-opacity:1"
         id="path88"
         inkscape:connector-curvature="0" /><path
         d="m 1875,6487.5 0,-111.6"
         style="fill:none;stroke:#262626;stroke-width:5.00250006;stroke-linecap:square;stroke-linejoin:round;stroke-miterlimit:10;stroke-dasharray:none;stroke-opacity:1"
         id="path90"
         inkscape:connector-curvature="0" /><path
         d="m 2991,6487.5 0,-111.6"
         style="fill:none;stroke:#262626;stroke-width:5.00250006;stroke-linecap:square;stroke-linejoin:round;stroke-miterlimit:10;stroke-dasharray:none;stroke-opacity:1"
         id="path92"
         inkscape:connector-curvature="0" /><path
         d="m 4107,6487.5 0,-111.6"
         style="fill:none;stroke:#262626;stroke-width:5.00250006;stroke-linecap:square;stroke-linejoin:round;stroke-miterlimit:10;stroke-dasharray:none;stroke-opacity:1"
         id="path94"
         inkscape:connector-curvature="0" /><path
         d="m 5223,6487.5 0,-111.6"
         style="fill:none;stroke:#262626;stroke-width:5.00250006;stroke-linecap:square;stroke-linejoin:round;stroke-miterlimit:10;stroke-dasharray:none;stroke-opacity:1"
         id="path96"
         inkscape:connector-curvature="0" /><path
         d="m 6339,6487.5 0,-111.6"
         style="fill:none;stroke:#262626;stroke-width:5.00250006;stroke-linecap:square;stroke-linejoin:round;stroke-miterlimit:10;stroke-dasharray:none;stroke-opacity:1"
         id="path98"
         inkscape:connector-curvature="0" /><path
         d="m 7455,6487.5 0,-111.6"
         style="fill:none;stroke:#262626;stroke-width:5.00250006;stroke-linecap:square;stroke-linejoin:round;stroke-miterlimit:10;stroke-dasharray:none;stroke-opacity:1"
         id="path100"
         inkscape:connector-curvature="0" /><path
         d="m 8571,6487.5 0,-111.6"
         style="fill:none;stroke:#262626;stroke-width:5.00250006;stroke-linecap:square;stroke-linejoin:round;stroke-miterlimit:10;stroke-dasharray:none;stroke-opacity:1"
         id="path102"
         inkscape:connector-curvature="0" /><path
         d="m 9687,6487.5 0,-111.6"
         style="fill:none;stroke:#262626;stroke-width:5.00250006;stroke-linecap:square;stroke-linejoin:round;stroke-miterlimit:10;stroke-dasharray:none;stroke-opacity:1"
         id="path104"
         inkscape:connector-curvature="0" /><path
         d="m 10803,6487.5 0,-111.6"
         style="fill:none;stroke:#262626;stroke-width:5.00250006;stroke-linecap:square;stroke-linejoin:round;stroke-miterlimit:10;stroke-dasharray:none;stroke-opacity:1"
         id="path106"
         inkscape:connector-curvature="0" /><path
         d="m 11919,6487.5 0,-111.6"
         style="fill:none;stroke:#262626;stroke-width:5.00250006;stroke-linecap:square;stroke-linejoin:round;stroke-miterlimit:10;stroke-dasharray:none;stroke-opacity:1"
         id="path108"
         inkscape:connector-curvature="0" /><path
         d="m 13035,6487.5 0,-111.6"
         style="fill:none;stroke:#262626;stroke-width:5.00250006;stroke-linecap:square;stroke-linejoin:round;stroke-miterlimit:10;stroke-dasharray:none;stroke-opacity:1"
         id="path110"
         inkscape:connector-curvature="0" /><g
         id="g112"
         transform="scale(10,10)"><text
           transform="matrix(1,0,0,-1,182.25,57.05)"
           style="font-variant:normal;font-weight:normal;font-size:15.99979973px;font-family:Helvetica;-inkscape-font-specification:Helvetica;writing-mode:lr-tb;fill:#262626;fill-opacity:1;fill-rule:nonzero;stroke:none"
           id="text114"><tspan
             x="0 106.72539 115.62128 218.32574 227.22163 329.92612 338.82199 441.52649 450.42236 553.12683 562.02271 664.72723 673.62311 776.32758 785.22345 887.92792 896.82385 999.52832 1008.4242 1105.8787 1114.7745 1123.6704"
             y="0"
             sodipodi:role="line"
             id="tspan116">0102030405060708090100</tspan></text>
<text
           transform="matrix(1,0,0,-1,702.75,35.8)"
           style="font-variant:normal;font-weight:normal;font-size:17.60020065px;font-family:Helvetica;-inkscape-font-specification:Helvetica;writing-mode:lr-tb;fill:#262626;fill-opacity:1;fill-rule:nonzero;stroke:none"
           id="text118"><tspan
             x="0 10.753722 14.660967 29.321934 39.107643 44.96851 53.768612 63.554321 72.354424"
             y="0"
             sodipodi:role="line"
             id="tspan120">Time(sec)</tspan></text>
</g><path
         d="m 1875,772.5 0,5715"
         style="fill:none;stroke:#262626;stroke-width:5.00250006;stroke-linecap:square;stroke-linejoin:round;stroke-miterlimit:10;stroke-dasharray:none;stroke-opacity:1"
         id="path122"
         inkscape:connector-curvature="0" /><path
         d="m 13035,772.5 0,5715"
         style="fill:none;stroke:#262626;stroke-width:5.00250006;stroke-linecap:square;stroke-linejoin:round;stroke-miterlimit:10;stroke-dasharray:none;stroke-opacity:1"
         id="path124"
         inkscape:connector-curvature="0" /><path
         d="m 1875,772.5 111.6,0"
         style="fill:none;stroke:#262626;stroke-width:5.00250006;stroke-linecap:square;stroke-linejoin:round;stroke-miterlimit:10;stroke-dasharray:none;stroke-opacity:1"
         id="path126"
         inkscape:connector-curvature="0" /><path
         d="m 1875,1344 111.6,0"
         style="fill:none;stroke:#262626;stroke-width:5.00250006;stroke-linecap:square;stroke-linejoin:round;stroke-miterlimit:10;stroke-dasharray:none;stroke-opacity:1"
         id="path128"
         inkscape:connector-curvature="0" /><path
         d="m 1875,1915.5 111.6,0"
         style="fill:none;stroke:#262626;stroke-width:5.00250006;stroke-linecap:square;stroke-linejoin:round;stroke-miterlimit:10;stroke-dasharray:none;stroke-opacity:1"
         id="path130"
         inkscape:connector-curvature="0" /><path
         d="m 1875,2487 111.6,0"
         style="fill:none;stroke:#262626;stroke-width:5.00250006;stroke-linecap:square;stroke-linejoin:round;stroke-miterlimit:10;stroke-dasharray:none;stroke-opacity:1"
         id="path132"
         inkscape:connector-curvature="0" /><path
         d="m 1875,3058.5 111.6,0"
         style="fill:none;stroke:#262626;stroke-width:5.00250006;stroke-linecap:square;stroke-linejoin:round;stroke-miterlimit:10;stroke-dasharray:none;stroke-opacity:1"
         id="path134"
         inkscape:connector-curvature="0" /><path
         d="m 1875,3630 111.6,0"
         style="fill:none;stroke:#262626;stroke-width:5.00250006;stroke-linecap:square;stroke-linejoin:round;stroke-miterlimit:10;stroke-dasharray:none;stroke-opacity:1"
         id="path136"
         inkscape:connector-curvature="0" /><path
         d="m 1875,4201.5 111.6,0"
         style="fill:none;stroke:#262626;stroke-width:5.00250006;stroke-linecap:square;stroke-linejoin:round;stroke-miterlimit:10;stroke-dasharray:none;stroke-opacity:1"
         id="path138"
         inkscape:connector-curvature="0" /><path
         d="m 1875,4773 111.6,0"
         style="fill:none;stroke:#262626;stroke-width:5.00250006;stroke-linecap:square;stroke-linejoin:round;stroke-miterlimit:10;stroke-dasharray:none;stroke-opacity:1"
         id="path140"
         inkscape:connector-curvature="0" /><path
         d="m 1875,5344.5 111.6,0"
         style="fill:none;stroke:#262626;stroke-width:5.00250006;stroke-linecap:square;stroke-linejoin:round;stroke-miterlimit:10;stroke-dasharray:none;stroke-opacity:1"
         id="path142"
         inkscape:connector-curvature="0" /><path
         d="m 1875,5916 111.6,0"
         style="fill:none;stroke:#262626;stroke-width:5.00250006;stroke-linecap:square;stroke-linejoin:round;stroke-miterlimit:10;stroke-dasharray:none;stroke-opacity:1"
         id="path144"
         inkscape:connector-curvature="0" /><path
         d="m 1875,6487.5 111.6,0"
         style="fill:none;stroke:#262626;stroke-width:5.00250006;stroke-linecap:square;stroke-linejoin:round;stroke-miterlimit:10;stroke-dasharray:none;stroke-opacity:1"
         id="path146"
         inkscape:connector-curvature="0" /><path
         d="m 13035,772.5 -111.6,0"
         style="fill:none;stroke:#262626;stroke-width:5.00250006;stroke-linecap:square;stroke-linejoin:round;stroke-miterlimit:10;stroke-dasharray:none;stroke-opacity:1"
         id="path148"
         inkscape:connector-curvature="0" /><path
         d="m 13035,1344 -111.6,0"
         style="fill:none;stroke:#262626;stroke-width:5.00250006;stroke-linecap:square;stroke-linejoin:round;stroke-miterlimit:10;stroke-dasharray:none;stroke-opacity:1"
         id="path150"
         inkscape:connector-curvature="0" /><path
         d="m 13035,1915.5 -111.6,0"
         style="fill:none;stroke:#262626;stroke-width:5.00250006;stroke-linecap:square;stroke-linejoin:round;stroke-miterlimit:10;stroke-dasharray:none;stroke-opacity:1"
         id="path152"
         inkscape:connector-curvature="0" /><path
         d="m 13035,2487 -111.6,0"
         style="fill:none;stroke:#262626;stroke-width:5.00250006;stroke-linecap:square;stroke-linejoin:round;stroke-miterlimit:10;stroke-dasharray:none;stroke-opacity:1"
         id="path154"
         inkscape:connector-curvature="0" /><path
         d="m 13035,3058.5 -111.6,0"
         style="fill:none;stroke:#262626;stroke-width:5.00250006;stroke-linecap:square;stroke-linejoin:round;stroke-miterlimit:10;stroke-dasharray:none;stroke-opacity:1"
         id="path156"
         inkscape:connector-curvature="0" /><path
         d="m 13035,3630 -111.6,0"
         style="fill:none;stroke:#262626;stroke-width:5.00250006;stroke-linecap:square;stroke-linejoin:round;stroke-miterlimit:10;stroke-dasharray:none;stroke-opacity:1"
         id="path158"
         inkscape:connector-curvature="0" /><path
         d="m 13035,4201.5 -111.6,0"
         style="fill:none;stroke:#262626;stroke-width:5.00250006;stroke-linecap:square;stroke-linejoin:round;stroke-miterlimit:10;stroke-dasharray:none;stroke-opacity:1"
         id="path160"
         inkscape:connector-curvature="0" /><path
         d="m 13035,4773 -111.6,0"
         style="fill:none;stroke:#262626;stroke-width:5.00250006;stroke-linecap:square;stroke-linejoin:round;stroke-miterlimit:10;stroke-dasharray:none;stroke-opacity:1"
         id="path162"
         inkscape:connector-curvature="0" /><path
         d="m 13035,5344.5 -111.6,0"
         style="fill:none;stroke:#262626;stroke-width:5.00250006;stroke-linecap:square;stroke-linejoin:round;stroke-miterlimit:10;stroke-dasharray:none;stroke-opacity:1"
         id="path164"
         inkscape:connector-curvature="0" /><path
         d="m 13035,5916 -111.6,0"
         style="fill:none;stroke:#262626;stroke-width:5.00250006;stroke-linecap:square;stroke-linejoin:round;stroke-miterlimit:10;stroke-dasharray:none;stroke-opacity:1"
         id="path166"
         inkscape:connector-curvature="0" /><path
         d="m 13035,6487.5 -111.6,0"
         style="fill:none;stroke:#262626;stroke-width:5.00250006;stroke-linecap:square;stroke-linejoin:round;stroke-miterlimit:10;stroke-dasharray:none;stroke-opacity:1"
         id="path168"
         inkscape:connector-curvature="0" /><g
         id="g170"
         transform="scale(10,10)"><text
           transform="matrix(1,0,0,-1,171.8,71.625)"
           style="font-variant:normal;font-weight:normal;font-size:15.99979973px;font-family:Helvetica;-inkscape-font-specification:Helvetica;writing-mode:lr-tb;fill:#262626;fill-opacity:1;fill-rule:nonzero;stroke:none"
           id="text172"><tspan
             x="0"
             y="0"
             id="tspan174">0</tspan><tspan
             x="-15 -6.1041112 -1.6561668"
             y="-57.150002"
             sodipodi:role="line"
             id="tspan176">0.2</tspan><tspan
             x="-15 -6.1041112 -1.6561668"
             y="-114.3"
             sodipodi:role="line"
             id="tspan178">0.4</tspan><tspan
             x="-15 -6.1041112 -1.6561668"
             y="-171.45"
             sodipodi:role="line"
             id="tspan180">0.6</tspan><tspan
             x="-15 -6.1041112 -1.6561668"
             y="-228.60001"
             sodipodi:role="line"
             id="tspan182">0.8</tspan><tspan
             x="0"
             y="-285.75"
             id="tspan184">1</tspan><tspan
             x="-15 -6.1041112 -1.6561668"
             y="-342.89999"
             sodipodi:role="line"
             id="tspan186">1.2</tspan><tspan
             x="-15 -6.1041112 -1.6561668"
             y="-400.04999"
             sodipodi:role="line"
             id="tspan188">1.4</tspan><tspan
             x="-15 -6.1041112 -1.6561668"
             y="-457.20001"
             sodipodi:role="line"
             id="tspan190">1.6</tspan><tspan
             x="-15 -6.1041112 -1.6561668"
             y="-514.34998"
             sodipodi:role="line"
             id="tspan192">1.8</tspan><tspan
             x="0"
             y="-571.5"
             id="tspan194">2</tspan></text>
<text
           transform="matrix(0,1,1,0,149.3,281.625)"
           style="font-variant:normal;font-weight:normal;font-size:17.60020065px;font-family:Helvetica;-inkscape-font-specification:Helvetica;writing-mode:lr-tb;fill:#262626;fill-opacity:1;fill-rule:nonzero;stroke:none"
           id="text196"><tspan
             x="0 12.707344 22.493055 32.278767 41.078865 50.864578 60.650288 65.543144 71.404015 81.18972 86.082581 89.989822 99.775536 109.56125 114.4541 120.31496 130.10068 139.88638"
             y="0"
             sodipodi:role="line"
             id="tspan198">Concentration (au)</tspan></text>
</g><g
         id="g200"
         transform="scale(10,10)"><text
           transform="matrix(1,0,0,-1,647.251,656.55)"
           style="font-variant:normal;font-weight:bold;font-size:17.60020065px;font-family:Helvetica;-inkscape-font-specification:Helvetica-Bold;writing-mode:lr-tb;fill:#000000;fill-opacity:1;fill-rule:nonzero;stroke:none"
           id="text202"><tspan
             x="0 13.692956 20.539433 25.432289 36.186012 41.078865 51.832588 61.618301 66.511154 71.404015 81.18972 87.050591 96.836304 102.69717 112.48288 122.26859 132.05431 136.94716 147.70088 157.48659"
             y="0"
             sodipodi:role="line"
             id="tspan204">Original statevalues</tspan></text>
</g><path
         d="m 1875,923.91 2.39,0.344 4.6,0.644 5.03,0.715 5.61,0.793 6.23,0.918 6.44,0.996 6.61,1.078 6.81,1.211 7,1.34 7.24,1.524 7.51,1.746 7.8,2.004 8.14,2.332 8.54,2.73 5.1,1.778 4.03,1.484 4.04,1.562 3.25,1.305 2.62,1.086 2.23,0.945 2.01,0.864 1.89,0.832 1.84,0.816 1.86,0.84 1.94,0.879 2.05,0.953 2.25,1.051 2.52,1.183 2.89,1.371 3.36,1.629 3.94,1.926 4.45,2.215 4.81,2.414 4.93,2.504 4.93,2.543 4.91,2.551 4.86,2.55 4.8,2.528 4.74,2.511 4.69,2.497 4.63,2.468 4.57,2.446 4.53,2.414 4.47,2.386 4.43,2.36 4.43,2.351 4.63,2.453 4.9,2.58 5.25,2.74 5.11,2.64 4.64,2.39 4.33,2.2 4.15,2.08 4.08,2.03 4.12,2.02 4.23,2.05 4.45,2.13 4.79,2.25 5.26,2.43 5.93,2.67 6.86,3 8.23,3.46 10.32,4.12 13.73,5.09 16.51,5.46 17.08,4.82 17.46,4.02 17.73,3.07 18.07,2.06 18.49,0.95 18.9,-0.21 18.28,-1.3 18.18,-2.25 18.63,-3.17 19.64,-4.1 21.23,-5.1 21.53,-5.63 21.86,-5.94 22.24,-6.12 22.67,-6.15 23.19,-6.09 23.76,-5.97 24.41,-5.8 25.1,-5.59 25.88,-5.39 25.13,-4.891 23.97,-4.375 22.81,-3.914 21.78,-3.547 20.89,-3.234 20.15,-2.992 19.53,-2.782 18.99,-2.609 18.58,-2.477 18.21,-2.347 17.93,-2.242 17.73,-2.161 17.57,-2.089 17.48,-2.02 17.43,-1.965 17.43,-1.918 17.46,-1.875 17.54,-1.832 17.62,-1.801 17.74,-1.769 17.87,-1.731 18,-1.703 18.14,-1.679 18.27,-1.661 18.43,-1.625 18.56,-1.605 18.69,-1.59 18.82,-1.57 18.94,-1.551 19.06,-1.531 19.19,-1.52 19.29,-1.508 19.4,-1.492 19.51,-1.48 19.61,-1.477 19.72,-1.461 19.82,-1.465 19.91,-1.445 20.03,-1.449 20.12,-1.438 20.24,-1.441 20.34,-1.441 20.27,-1.418 19.66,-1.371 18.98,-1.313 18.24,-1.254 17.52,-1.199 16.81,-1.141 16.15,-1.086 15.5,-1.043 14.92,-0.996 14.37,-0.953 13.86,-0.914 13.39,-0.879 12.97,-0.84 12.56,-0.816 12.2,-0.781 11.87,-0.758 11.56,-0.727 11.28,-0.707 11.02,-0.687 10.78,-0.66 10.56,-0.645 10.35,-0.633 10.18,-0.605 10.02,-0.594 9.86,-0.578 9.74,-0.57 9.62,-0.547 9.53,-0.539 9.44,-0.524 9.38,-0.511 9.34,-0.504 9.32,-0.493 9.32,-0.488 9.36,-0.473 9.42,-0.472 9.51,-0.457 9.64,-0.449 9.82,-0.446 10.06,-0.433 10.38,-0.426 10.75,-0.422 11.23,-0.406 11.82,-0.383 12.52,-0.359 13.3,-0.321 8.28,-0.16 8.26,-0.133 6.76,-0.09 5.53,-0.058 4.82,-0.039 4.46,-0.024 4.33,-0.015 4.41,-0.008 4.64,0 5.08,0.016 5.76,0.023 6.82,0.051 8.51,0.082 11.38,0.152 14.42,0.231 14.86,0.285 15.11,0.316 15.3,0.328 15.5,0.325 15.71,0.324 15.93,0.289 15.95,0.265 15.69,0.223 15.4,0.18 15.12,0.144 14.84,0.114 14.55,0.089 14.25,0.075 13.94,0.074 13.26,0.074 12.68,0.09 11.82,0.09 10.92,0.097 10.09,0.114 9.37,0.105 8.75,0.113 8.25,0.114 7.83,0.101 7.48,0.098 7.17,0.094 6.91,0.074 6.71,0.059 6.51,0.046 6.35,0.028 6.22,0 6.1,-0.016 6.02,-0.035 5.93,-0.066 5.87,-0.098 5.83,-0.121 5.8,-0.156 5.77,-0.184 5.78,-0.207 5.79,-0.25 5.82,-0.277 5.86,-0.297 5.91,-0.34 5.98,-0.36 6.07,-0.382 6.17,-0.407 6.29,-0.41 6.44,-0.429 6.59,-0.434 6.78,-0.422 6.98,-0.394 7.23,-0.368 7.48,-0.316 7.79,-0.234 8.14,-0.141 8.53,0 4.8,0.066 3.83,0.09 3.83,0.129 3.12,0.121 2.53,0.117 2.17,0.114 1.98,0.113 1.87,0.105 1.83,0.114 1.86,0.117 1.94,0.137 2.07,0.14 2.26,0.168 2.55,0.196 2.92,0.23 3.42,0.277 3.98,0.336 4.5,0.407 4.8,0.445 4.9,0.461 4.9,0.496 4.88,0.504 4.82,0.508 4.76,0.519 4.7,0.531 4.64,0.539 4.58,0.543 4.53,0.547 4.48,0.555 4.43,0.555 4.38,0.562 4.44,0.586 4.65,0.621 4.93,0.668 5.28,0.727 4.91,0.691 4.48,0.645 4.2,0.609 4.02,0.59 3.98,0.594 4.02,0.597 4.15,0.633 4.37,0.676 4.7,0.726 5.17,0.817 5.82,0.922 6.73,1.097 8.07,1.325 10.11,1.695 13.4,2.312 19.31,3.426 29.74,5.528 30.72,6.007 30.89,6.352 30.99,6.684 31.08,7.019 31.16,7.344 31.23,7.656 31.3,7.981 31.37,8.257 30.47,8.25 28.84,7.973 27.32,7.648 25.94,7.304 24.76,6.95 23.76,6.6 22.87,6.23 22.12,5.86 21.47,5.47 20.89,5.06 20.42,4.63 20.02,4.2 19.69,3.71 19.44,3.2 19.26,2.65 19.17,2.07 19.18,1.4 19.29,0.67 19.5,-0.13 19.85,-1.03 19.15,-1.84 18.59,-2.55 18.58,-3.24 19.17,-3.94 20.33,-4.7 21.29,-5.29 21.66,-5.6 22.07,-5.76 22.52,-5.81 23.04,-5.74 23.64,-5.64 24.29,-5.46 25.02,-5.274 25.48,-5.019 24.54,-4.5 23.54,-4.043 22.54,-3.645 21.66,-3.312 20.86,-3.031 20.17,-2.805 19.58,-2.609 19.05,-2.446 18.63,-2.32 18.25,-2.195 17.96,-2.102 17.71,-2.016 17.54,-1.949 17.4,-1.89 17.33,-1.832 17.31,-1.793 17.32,-1.746 17.36,-1.711 17.43,-1.68 17.54,-1.656 17.65,-1.621 17.79,-1.598 17.92,-1.574 18.07,-1.559 18.22,-1.531 18.35,-1.516 18.5,-1.492 18.64,-1.477 18.76,-1.472 18.9,-1.446 19.02,-1.433 19.14,-1.426 19.24,-1.414 19.37,-1.41 19.47,-1.395 19.57,-1.398 19.68,-1.387 19.79,-1.379 19.88,-1.379 19.99,-1.382 20.1,-1.372 20.19,-1.371 20.32,-1.375 20.39,-1.371 19.81,-1.32 19.17,-1.273 18.44,-1.223 17.71,-1.172 16.99,-1.109 16.32,-1.067 15.67,-1.019 15.08,-0.973 14.52,-0.937 13.99,-0.895 13.53,-0.863 13.08,-0.824 12.67,-0.797 12.31,-0.762 11.96,-0.742 11.65,-0.723 11.35,-0.695 11.1,-0.668 10.84,-0.653 10.62,-0.636 10.42,-0.617 10.23,-0.598 10.06,-0.586 9.91,-0.563 9.77,-0.554 9.66,-0.543 9.55,-0.531 9.46,-0.516 9.4,-0.504 9.35,-0.496 9.32,-0.484 9.33,-0.481 9.34,-0.465 9.39,-0.457 9.47,-0.453 9.6,-0.449 9.76,-0.434 9.99,-0.429 10.27,-0.418 10.62,-0.414 11.08,-0.407 11.62,-0.379 12.29,-0.363 13.05,-0.32 9.15,-0.196 9.14,-0.156 5.85,-0.086 5.85,-0.066 5.13,-0.043 4.62,-0.031 4.38,-0.024 4.34,-0.008 4.49,-0.007 4.8,0.007 5.33,0.016 6.16,0.039 7.45,0.059 9.53,0.105 13.27,0.188 14.66,0.246 15,0.293 15.19,0.308 15.4,0.317 15.58,0.304 15.81,0.293 16.05,0.258 15.86,0.215 15.56,0.18 15.29,0.129 15.01,0.097 14.72,0.067 14.43,0.047 14.13,0.027 13.66,0.039 12.97,0.039 12.39,0.043 11.4,0.055 10.54,0.066 9.74,0.067 9.07,0.074 8.51,0.074 8.04,0.07 7.66,0.067 7.32,0.058 7.04,0.047 6.82,0.031 6.6,0.02 6.44,0 6.28,-0.016 6.16,-0.043 6.05,-0.058 5.97,-0.09 5.91,-0.121 5.84,-0.145 5.8,-0.179 5.79,-0.204 5.77,-0.238 5.78,-0.269 5.8,-0.301 5.83,-0.336 5.87,-0.359 5.94,-0.399 6.01,-0.422 6.12,-0.441 6.22,-0.465 6.35,-0.473 6.5,-0.496 6.68,-0.488 6.86,-0.477 7.09,-0.453 7.33,-0.418 7.62,-0.367 7.94,-0.285 8.3,-0.18 5.94,-0.039 4.58,0.016 3.62,0.047 3.63,0.074 2.98,0.082 2.46,0.082 2.13,0.082 1.95,0.074 1.86,0.09 1.84,0.082 1.87,0.098 1.95,0.105 2.09,0.114 2.32,0.136 2.6,0.164 3.01,0.188 3.5,0.23 4.09,0.285 4.56,0.34 4.83,0.367 4.91,0.399 4.9,0.402 4.86,0.422 4.81,0.434 4.75,0.437 4.68,0.449 4.64,0.457 4.58,0.457 4.51,0.465 4.47,0.473 4.42,0.48 4.37,0.481 4.47,0.5 4.7,0.535 4.97,0.582 5.35,0.633 4.83,0.59 4.41,0.543 4.15,0.515 4.01,0.512 3.98,0.508 4.03,0.519 4.18,0.547 4.42,0.586 4.77,0.645 5.26,0.711 5.96,0.824 6.93,0.976 8.38,1.192 10.56,1.539 14.2,2.121 20.83,3.219 30.04,4.851 30.77,5.235 30.92,5.511 31.02,5.809 31.11,6.082 31.19,6.375 31.26,6.66 31.34,6.949 31.4,7.247 31.48,7.531 31.58,7.808 31.37,7.985 29.76,7.758 28.23,7.468 26.77,7.16 25.52,6.82 24.42,6.5 23.47,6.15 22.64,5.8 21.93,5.44 21.31,5.04 20.77,4.66 20.32,4.23 19.93,3.79 19.64,3.31 19.42,2.8 19.26,2.24 19.22,1.63 19.25,0.95 19.4,0.2 19.67,-0.62 19.73,-1.51 18.88,-2.25 18.55,-2.93 18.81,-3.59 19.64,-4.32 21.05,-5.08 21.45,-5.49 21.82,-5.7 22.26,-5.8 22.74,-5.79 23.29,-5.7 23.92,-5.56 24.61,-5.38 25.36,-5.175 25.05,-4.782 24.09,-4.281 23.08,-3.848 22.13,-3.488 21.29,-3.172 20.54,-2.926 19.89,-2.707 19.34,-2.527 18.86,-2.383 18.45,-2.258 18.12,-2.152 17.84,-2.055 17.62,-1.988 17.48,-1.914 17.37,-1.859 17.32,-1.817 17.3,-1.769 17.32,-1.723 17.39,-1.703 17.48,-1.664 17.59,-1.637 17.71,-1.613 17.84,-1.582 17.99,-1.567 18.14,-1.539 18.27,-1.519 18.42,-1.508 18.56,-1.488 18.7,-1.469 18.82,-1.453 18.95,-1.441 19.08,-1.434 19.18,-1.418 19.3,-1.406 19.41,-1.407 19.52,-1.394 19.62,-1.387 19.72,-1.387 19.83,-1.378 19.93,-1.375 20.04,-1.379 20.14,-1.371 20.29,-1.375 20.3,-1.364 20.2,-1.351 19.5,-1.305 18.8,-1.254 18.2,-1.191 17.3,-1.145 16.7,-1.09 16.1,-1.043 15.4,-1.004 14.8,-0.953 14.3,-0.914 13.8,-0.879 13.3,-0.847 12.9,-0.809 12.5,-0.789 12.2,-0.758 11.8,-0.726 11.5,-0.703 11.3,-0.692 10.9,-0.66 10.8,-0.645 10.5,-0.621 10.4,-0.617 10.1,-0.586 10,-0.574 9.8,-0.566 9.8,-0.547 9.6,-0.539 9.5,-0.524 9.4,-0.511 9.4,-0.5 9.3,-0.489 9.4,-0.48 9.3,-0.473 9.3,-0.465 9.5,-0.457 9.5,-0.449 9.6,-0.437 9.9,-0.434 10.1,-0.43 10.4,-0.418 10.8,-0.406 11.3,-0.391 11.9,-0.375 12.6,-0.351 13.4,-0.309 7.9,-0.14 8,-0.129 6.5,-0.074 5.4,-0.051 4.7,-0.039 4.5,-0.024 4.3,-0.015 4.4,-0.004 4.7,0 5.2,0.011 5.9,0.032 7,0.05 8.8,0.09 11.9,0.153 14.5,0.238 14.9,0.277 15.1,0.309 15.4,0.316 15.5,0.305 15.7,0.301 16,0.261 15.9,0.235 15.7,0.187 15.4,0.141 15.1,0.105 14.8,0.079 14.5,0.05 14.2,0.039 13.9,0.028 13.2,0.039 12.6,0.035 11.7,0.055 10.8,0.058 10,0.071 9.2,0.074 8.7,0.074 8.2,0.066 7.7,0.071 7.5,0.058 7.1,0.051 6.9,0.039 6.6,0.024 6.5,0.007 6.4,-0.015 6.2,-0.039 6,-0.051 6,-0.082 6,-0.113 5.8,-0.137 5.8,-0.172 5.8,-0.195 5.8,-0.227 5.8,-0.262 5.8,-0.293 5.8,-0.32 5.8,-0.359 6,-0.383 5.9,-0.414 6.1,-0.434 6.2,-0.465 6.3,-0.472 6.5,-0.488 6.6,-0.489 6.8,-0.488 7,-0.465 7.3,-0.433 7.5,-0.383 7.8,-0.317 8.2,-0.215 6.7,-0.082 5,0 3.9,0.036 3.9,0.078 3.2,0.082 2.6,0.074 2.2,0.082 2,0.082 1.8,0.082 1.9,0.082 1.8,0.098 2,0.097 2,0.114 2.3,0.129 2.5,0.156 2.9,0.18 3.4,0.226 3.9,0.27 4.5,0.32 4.8,0.363 4.9,0.379 4.9,0.406 4.8,0.422 4.9,0.426 4.7,0.434 4.7,0.445 4.7,0.449 4.6,0.457 4.5,0.465 4.5,0.473 4.4,0.472 4.4,0.481 4.4,0.488 4.6,0.524 5,0.57 5.2,0.621 5,0.594 4.5,0.547 4.2,0.527 4,0.508 4,0.504 4,0.515 4.1,0.543 4.4,0.567 4.6,0.625 5.1,0.695 5.8,0.789 6.6,0.922 8,1.125 9.9,1.426 13,1.925 18.7,2.852 29.2,4.656 30.7,5.145 30.9,5.437 31,5.715 31.1,6 31.2,6.285 31.2,6.578 31.3,6.864 31.4,7.156 31.5,7.445 31.5,7.719 31.7,7.988 30.2,7.821 28.7,7.554 27.1,7.239 25.9,6.91 24.7,6.59 23.8,6.25 22.8,5.9 22.2,5.53 21.4,5.16 20.9,4.77 20.5,4.35 20,3.92 19.7,3.44 19.5,2.95 19.3,2.4 19.2,1.81 19.3,1.15 19.3,0.43 19.6,-0.38 20,-1.28 19,-2.05 18.6,-2.73 18.7,-3.42 19.3,-4.11 20.6,-4.86 21.4,-5.37 21.7,-5.66 22.1,-5.78 22.6,-5.81 23.1,-5.74 23.7,-5.6 24.4,-5.43 25.2,-5.239 25.3,-4.922 24.4,-4.426 23.3,-3.964 22.4,-3.586 21.6,-3.262 20.7,-2.984 20.1,-2.77 19.5,-2.578 19,-2.422 18.5,-2.297 18.2,-2.176 17.9,-2.086 17.7,-2 17.5,-1.937 17.4,-1.875 17.4,-1.828 17.3,-1.778 17.3,-1.738 17.3,-1.711 17.5,-1.672 17.5,-1.644 17.7,-1.621 17.8,-1.59 18,-1.574 18.1,-1.543 18.2,-1.532 3.9,-0.324"
         style="fill:none;stroke:#0072bd;stroke-width:30;stroke-linecap:butt;stroke-linejoin:round;stroke-miterlimit:10;stroke-dasharray:none;stroke-opacity:1"
         id="path206"
         inkscape:connector-curvature="0" /><path
         d="m 1875,1430.86 2.39,-9.33 4.6,-18.62 5.03,-21.54 5.61,-25.36 6.23,-29.85 6.44,-32.68 6.61,-35.57 6.81,-38.57 7,-41.78 7.24,-45.21 7.51,-48.8 7.8,-52.44 8.14,-55.786 8.54,-58.058 5.1,-33.067 4.03,-24.355 4.04,-21.856 3.25,-15.043 2.62,-9.988 2.23,-6.863 2.01,-4.899 1.89,-3.601 1.84,-2.707 1.86,-2.071 1.94,-1.617 2.05,-1.312 2.25,-1.098 2.52,-0.965 2.89,-0.918 3.36,-0.929 3.94,-0.965 4.45,-1.024 4.81,-1.019 4.93,-0.981 4.93,-0.922 4.91,-0.863 4.86,-0.797 4.8,-0.734 4.74,-0.684 4.69,-0.629 4.63,-0.586 4.57,-0.531 4.53,-0.496 4.47,-0.449 4.43,-0.406 4.43,-0.371 4.63,-0.348 4.9,-0.32 5.25,-0.286 5.11,-0.234 4.64,-0.164 4.33,-0.121 4.15,-0.09 4.08,-0.059 4.12,-0.054 4.23,-0.035 4.45,-0.032 4.79,-0.023 5.26,-0.016 5.93,-0.004 6.86,-0.007 8.23,-0.008 10.32,-0.008 13.73,0 16.51,-0.008 34.54,0 17.73,-0.008 110.55,0 19.64,0.008 42.76,0 21.86,0.008 22.24,0 22.67,0.008 23.19,0.008 23.76,0.007 24.41,0.004 25.1,0.008 25.88,0.016 25.13,0.015 23.97,0.016 22.81,0.008 21.78,0.023 20.89,0.012 20.15,0.016 19.53,0.015 18.99,0.024 18.58,0.023 18.21,0.016 17.93,0.019 17.73,0.031 17.57,0.024 17.48,0.027 17.43,0.024 17.43,0.039 17.46,0.027 17.54,0.031 17.62,0.039 17.74,0.043 17.87,0.039 18,0.043 18.14,0.055 18.27,0.051 18.43,0.055 18.56,0.058 18.69,0.067 18.82,0.07 18.94,0.082 19.06,0.082 19.19,0.09 19.29,0.105 19.4,0.114 19.51,0.117 19.61,0.144 19.72,0.149 19.82,0.164 19.91,0.187 20.03,0.211 20.12,0.242 20.24,0.27 20.34,0.297 20.27,0.34 19.66,0.375 18.98,0.406 18.24,0.433 17.52,0.473 16.81,0.508 16.15,0.543 15.5,0.582 14.92,0.617 14.37,0.668 13.86,0.703 13.39,0.758 12.97,0.813 12.56,0.859 12.2,0.922 11.87,0.992 11.56,1.059 11.28,1.132 11.02,1.215 10.78,1.313 10.56,1.414 10.35,1.531 10.18,1.652 10.02,1.797 9.86,1.953 9.74,2.137 9.62,2.34 9.53,2.562 9.44,2.836 9.38,3.145 9.34,3.492 9.32,3.91 9.32,4.395 9.36,4.965 9.42,5.648 9.51,6.481 9.64,7.46 9.82,8.684 10.06,10.188 10.38,12.027 10.75,14.355 11.23,17.266 11.82,20.902 12.52,25.403 13.3,30.718 8.28,20.962 8.26,22.12 6.76,18.76 5.53,15.6 4.82,13.66 4.46,12.62 4.33,12.18 4.41,12.24 4.64,12.69 5.08,13.63 5.76,15.12 6.82,17.43 8.51,21.01 11.38,26.92 14.42,32.34 14.86,31.5 15.11,30.27 15.3,29 15.5,27.81 15.71,26.67 15.93,25.61 15.95,24.25 15.69,22.51 15.4,20.85 15.12,19.29 14.84,17.77 14.55,16.31 14.25,14.83 13.94,13.38 13.26,11.58 12.68,9.93 11.82,8.16 10.92,6.45 10.09,4.92 9.37,3.57 8.75,2.34 8.25,1.23 7.83,0.19 7.48,-0.8 7.17,-1.76 6.91,-2.72 6.71,-3.64 6.51,-4.59 6.35,-5.55 6.22,-6.52 6.1,-7.52 6.02,-8.54 5.93,-9.61 5.87,-10.71 5.83,-11.87 5.8,-13.09 5.77,-14.35 5.78,-15.71 5.79,-17.14 5.82,-18.66 5.86,-20.28 5.91,-22.04 5.98,-23.91 6.07,-25.95 6.17,-28.12 6.29,-30.5 6.44,-33.06 6.59,-35.84 6.78,-38.84 6.98,-42.07 7.23,-45.51 7.48,-49.09 7.79,-52.7 8.14,-55.926 8.53,-57.855 4.8,-30.856 3.83,-22.785 3.83,-20.347 3.12,-14.063 2.53,-9.406 2.17,-6.508 1.98,-4.676 1.87,-3.441 1.83,-2.594 1.86,-1.996 1.94,-1.559 2.07,-1.269 2.26,-1.07 2.55,-0.954 2.92,-0.914 3.42,-0.921 3.98,-0.977 4.5,-1.02 4.8,-1.019 4.9,-0.969 4.9,-0.906 4.88,-0.848 4.82,-0.789 4.76,-0.719 4.7,-0.675 4.64,-0.621 4.58,-0.571 4.53,-0.535 4.48,-0.476 4.43,-0.446 4.38,-0.402 4.44,-0.363 4.65,-0.344 4.93,-0.317 5.28,-0.281 4.91,-0.211 4.48,-0.152 4.2,-0.113 4.02,-0.082 3.98,-0.067 4.02,-0.043 4.15,-0.039 4.37,-0.023 4.7,-0.024 5.17,-0.011 5.82,-0.008 6.73,-0.008 8.07,-0.008 10.11,-0.008 13.4,-0.007 19.31,0 29.74,-0.008 30.72,-0.008 30.89,-0.008 30.99,0 31.08,-0.008 93.69,0 31.37,-0.004 248.44,0 20.42,0.004 116.76,0 19.29,0.008 58.5,0 18.59,0.008 18.58,0 19.17,0.008 20.33,0 21.29,0.008 21.66,0 22.07,0.007 22.52,0.008 23.04,0.008 23.64,0.008 24.29,0.008 25.02,0.007 25.48,0.004 24.54,0.016 23.54,0.016 22.54,0.015 21.66,0.008 20.86,0.016 20.17,0.023 19.58,0.012 19.05,0.015 18.63,0.024 18.25,0.015 17.96,0.024 17.71,0.019 17.54,0.024 17.4,0.031 17.33,0.02 17.31,0.031 17.32,0.031 17.36,0.031 17.43,0.036 17.54,0.031 17.65,0.043 17.79,0.039 17.92,0.043 18.07,0.047 18.22,0.05 18.35,0.055 18.5,0.059 18.64,0.07 18.76,0.066 18.9,0.075 19.02,0.082 19.14,0.09 19.24,0.105 19.37,0.105 19.47,0.122 19.57,0.132 19.68,0.145 19.79,0.164 19.88,0.18 19.99,0.203 20.1,0.23 20.19,0.258 20.32,0.289 20.39,0.332 19.81,0.36 19.17,0.398 18.44,0.426 17.71,0.465 16.99,0.496 16.32,0.531 15.67,0.562 15.08,0.618 14.52,0.644 13.99,0.699 13.53,0.743 13.08,0.785 12.67,0.847 12.31,0.903 11.96,0.965 11.65,1.035 11.35,1.109 11.1,1.195 10.84,1.282 10.62,1.379 10.42,1.492 10.23,1.621 10.06,1.746 9.91,1.906 9.77,2.078 9.66,2.274 9.55,2.488 9.46,2.754 9.4,3.035 9.35,3.383 9.32,3.773 9.33,4.231 9.34,4.785 9.39,5.422 9.47,6.211 9.6,7.14 9.76,8.278 9.99,9.683 10.27,11.422 10.62,13.578 11.08,16.297 11.62,19.688 12.29,23.918 13.05,28.992 9.15,22.493 9.14,24.02 5.85,16.03 5.85,16.37 5.13,14.49 4.62,13.1 4.38,12.36 4.34,12.15 4.49,12.37 4.8,13.02 5.33,14.18 6.16,15.97 7.45,18.74 9.53,23.13 13.27,30.67 14.66,32.05 15,30.94 15.19,29.68 15.4,28.45 15.58,27.28 15.81,26.17 16.05,25.15 15.86,23.46 15.56,21.76 15.29,20.14 15.01,18.61 14.72,17.11 14.43,15.64 14.13,14.18 13.66,12.58 12.97,10.8 12.39,9.19 11.4,7.34 10.54,5.74 9.74,4.27 9.07,2.99 8.51,1.81 8.04,0.75 7.66,-0.27 7.32,-1.25 7.04,-2.19 6.82,-3.14 6.6,-4.07 6.44,-5.03 6.28,-5.98 6.16,-6.96 6.05,-7.98 5.97,-9.01 5.91,-10.1 5.84,-11.22 5.8,-12.41 5.79,-13.64 5.77,-14.95 5.78,-16.33 5.8,-17.81 5.83,-19.37 5.87,-21.04 5.94,-22.87 6.01,-24.79 6.12,-26.89 6.22,-29.16 6.35,-31.61 6.5,-34.27 6.68,-37.14 6.86,-40.26 7.09,-43.57 7.33,-47.1 7.62,-50.7 7.94,-54.206 8.3,-57 5.94,-39.695 4.58,-28.949 3.62,-21.106 3.63,-18.73 2.98,-13.02 2.46,-8.789 2.13,-6.129 1.95,-4.422 1.86,-3.273 1.84,-2.473 1.87,-1.914 1.95,-1.508 2.09,-1.222 2.32,-1.047 2.6,-0.938 3.01,-0.918 3.5,-0.929 4.09,-0.989 4.56,-1.019 4.83,-1.008 4.91,-0.965 4.9,-0.894 4.86,-0.84 4.81,-0.77 4.75,-0.715 4.68,-0.668 4.64,-0.613 4.58,-0.562 4.51,-0.52 4.47,-0.48 4.42,-0.434 4.37,-0.391 4.47,-0.367 4.7,-0.336 4.97,-0.308 5.35,-0.278 4.83,-0.195 4.41,-0.148 4.15,-0.106 4.01,-0.074 3.98,-0.063 4.03,-0.043 4.18,-0.031 4.42,-0.031 4.77,-0.016 5.26,-0.011 5.96,-0.008 6.93,-0.016 8.38,0 10.56,-0.008 14.2,-0.007 20.83,-0.008 30.04,0 30.77,-0.008 30.92,-0.008 31.02,0 31.11,-0.008 62.45,0 31.34,-0.004 390.97,0 19.93,0.004 96.79,0 19.4,0.008 39.4,0 18.88,0.008 37.36,0 19.64,0.008 21.05,0 21.45,0.008 21.82,0 22.26,0.007 22.74,0.008 23.29,0.008 23.92,0.008 24.61,0.008 25.36,0.011 25.05,0.008 24.09,0.016 23.08,0.008 22.13,0.015 21.29,0.016 20.54,0.015 19.89,0.016 19.34,0.02 18.86,0.015 18.45,0.024 18.12,0.023 17.84,0.016 17.62,0.019 17.48,0.031 17.37,0.024 17.32,0.027 17.3,0.032 17.32,0.031 17.39,0.027 17.48,0.039 17.59,0.039 17.71,0.035 17.84,0.047 17.99,0.043 18.14,0.047 18.27,0.051 18.42,0.062 18.56,0.059 18.7,0.066 18.82,0.067 18.95,0.086 19.08,0.082 19.18,0.097 19.3,0.106 19.41,0.109 19.52,0.121 19.62,0.145 19.72,0.148 19.83,0.172 19.93,0.196 20.04,0.21 20.14,0.239 20.29,0.277 20.3,0.309 20.2,0.336 19.5,0.382 18.8,0.407 18.2,0.441 17.3,0.481 16.7,0.511 16.1,0.547 15.4,0.586 14.8,0.621 14.3,0.676 13.8,0.711 13.3,0.758 12.9,0.816 12.5,0.871 12.2,0.93 11.8,1 11.5,1.062 11.3,1.149 10.9,1.23 10.8,1.321 10.5,1.425 10.4,1.543 10.1,1.672 10,1.817 9.8,1.972 9.8,2.16 9.6,2.364 9.5,2.601 9.4,2.871 9.4,3.18 9.3,3.543 9.4,3.957 9.3,4.465 9.3,5.047 9.5,5.746 9.5,6.582 9.6,7.605 9.9,8.852 10.1,10.387 10.4,12.293 10.8,14.675 11.3,17.664 11.9,21.407 12.6,26.008 13.4,31.41 7.9,20.285 8,21.33 6.5,18.15 5.4,15.25 4.7,13.46 4.5,12.52 4.3,12.16 4.4,12.26 4.7,12.79 5.2,13.78 5.9,15.38 7,17.8 8.8,21.62 11.9,28 14.5,32.25 14.9,31.32 15.1,30.06 15.4,28.83 15.5,27.63 15.7,26.51 16,25.46 15.9,24.01 15.7,22.27 15.4,20.64 15.1,19.07 14.8,17.59 14.5,16.1 14.2,14.63 13.9,13.16 13.2,11.33 12.6,9.71 11.7,7.88 10.8,6.22 10,4.7 9.2,3.38 8.7,2.16 8.2,1.08 7.7,0.04 7.5,-0.94 7.1,-1.91 6.9,-2.84 6.6,-3.78 6.5,-4.72 6.4,-5.68 6.2,-6.66 6,-7.66 6,-8.68 6,-9.76 5.8,-10.87 5.8,-12.03 5.8,-13.25 5.8,-14.53 5.8,-15.88 5.8,-17.34 5.8,-18.88 5.8,-20.51 6,-22.27 5.9,-24.18 6.1,-26.21 6.2,-28.44 6.3,-30.82 6.5,-33.42 6.6,-36.22 6.8,-39.25 7,-42.52 7.3,-45.98 7.5,-49.57 7.8,-53.15 8.2,-56.256 6.7,-45.66 5,-32.195 3.9,-23.454 3.9,-20.984 3.2,-14.5 2.6,-9.664 2.2,-6.668 2,-4.769 1.8,-3.512 1.9,-2.649 1.8,-2.023 2,-1.59 2,-1.289 2.3,-1.082 2.5,-0.961 2.9,-0.906 3.4,-0.922 3.9,-0.977 4.5,-1.019 4.8,-1.012 4.9,-0.976 4.9,-0.914 4.8,-0.848 4.9,-0.793 4.7,-0.731 4.7,-0.671 4.7,-0.633 4.6,-0.571 4.5,-0.531 4.5,-0.488 4.4,-0.442 4.4,-0.406 4.4,-0.367 4.6,-0.344 5,-0.316 5.2,-0.285 5,-0.215 4.5,-0.16 4.2,-0.114 4,-0.089 4,-0.059 4,-0.043 4.1,-0.039 4.4,-0.031 4.6,-0.024 5.1,-0.011 5.8,-0.008 6.6,-0.008 8,-0.008 9.9,-0.008 13,-0.007 18.7,0 29.2,-0.008 30.7,-0.008 30.9,-0.008 31,0 31.1,-0.008 62.4,0 31.3,-0.004 394.3,0 20,0.004 97,0 19.3,0.008 58.6,0 18.6,0.008 18.7,0 19.3,0.008 20.6,0 21.4,0.008 21.7,0 22.1,0.007 22.6,0.008 23.1,0.008 23.7,0.008 24.4,0.008 25.2,0.007 25.3,0.012 24.4,0.008 23.3,0.016 22.4,0.015 21.6,0.016 20.7,0.015 20.1,0.016 19.5,0.012 19,0.015 18.5,0.024 18.2,0.023 17.9,0.024 17.7,0.019 17.5,0.024 17.4,0.023 17.4,0.027 17.3,0.024 17.3,0.031 17.3,0.035 17.5,0.032 17.5,0.039 17.7,0.035 17.8,0.047 18,0.043 18.1,0.046 18.2,0.051 3.9,0.016"
         style="fill:none;stroke:#d95319;stroke-width:30;stroke-linecap:butt;stroke-linejoin:round;stroke-miterlimit:10;stroke-dasharray:none;stroke-opacity:1"
         id="path208"
         inkscape:connector-curvature="0" /><path
         d="m 1875,1867.28 2.39,-6.46 4.6,-11.77 5.03,-11.98 5.61,-12.18 6.23,-12.07 6.44,-10.79 6.61,-9.28 6.81,-7.55 7,-5.57 7.24,-3.31 7.51,-0.69 7.8,2.36 8.14,5.97 8.54,10.24 5.1,8.09 4.03,7.42 4.04,8.31 3.25,7.32 2.62,6.23 2.23,5.55 2.01,5.14 1.89,4.97 1.84,4.96 1.86,5.11 1.94,5.38 2.05,5.83 2.25,6.49 2.52,7.39 2.89,8.62 3.36,10.27 3.94,12.26 4.45,14.27 4.81,15.76 4.93,16.61 4.93,17.09 4.91,17.39 4.86,17.64 4.8,17.83 4.74,18 4.69,18.16 4.63,18.3 4.57,18.42 4.53,18.55 4.47,18.68 4.43,18.81 4.43,19.11 4.63,20.35 4.9,21.9 5.25,23.79 5.11,23.57 4.64,21.83 4.33,20.6 4.15,19.98 4.08,19.91 4.12,20.29 4.23,21.15 4.45,22.52 4.79,24.49 5.26,27.29 5.93,31.17 6.86,36.68 8.23,44.78 10.32,57.3 13.73,78.31 16.51,96.9 17.08,103.14 17.46,108.06 17.73,111.72 18.07,115.2 18.49,118.39 18.9,120.55 18.28,115.32 18.18,112.52 18.63,112.59 19.64,115.27 21.23,120.27 21.53,117.33 21.86,114.23 22.24,111.31 22.67,108.58 23.19,106.02 23.76,103.63 24.41,101.34 25.1,99.1 25.88,96.89 25.13,89.32 23.97,80.92 22.81,73.31 21.78,66.81 20.89,61.28 20.15,56.6 19.53,52.57 18.99,49.09 18.58,46.08 18.21,43.43 17.93,41.12 17.73,39.07 17.57,37.24 17.48,35.62 17.43,34.15 17.43,32.82 17.46,31.59 17.54,30.44 17.62,29.38 17.74,28.35 17.87,27.36 18,26.41 18.14,25.46 18.27,24.54 18.43,23.62 18.56,22.73 18.69,21.82 18.82,20.94 18.94,20.05 19.06,19.18 19.19,18.31 19.29,17.46 19.4,16.59 19.51,15.75 19.61,14.91 19.72,14.08 19.82,13.24 19.91,12.43 20.03,11.57 20.12,10.76 20.24,9.92 20.34,9.05 20.27,8.13 19.66,7.03 18.98,5.95 18.24,4.97 17.52,4.03 16.81,3.2 16.15,2.42 15.5,1.71 14.92,1.05 14.37,0.45 13.86,-0.12 13.39,-0.66 12.97,-1.14 12.56,-1.64 12.2,-2.11 11.87,-2.55 11.56,-3 11.28,-3.44 11.02,-3.88 10.78,-4.33 10.56,-4.78 10.35,-5.26 10.18,-5.75 10.02,-6.24 9.86,-6.8 9.74,-7.36 9.62,-7.98 9.53,-8.64 9.44,-9.37 9.38,-10.18 9.34,-11.08 9.32,-12.09 9.32,-13.23 9.36,-14.56 9.42,-16.09 9.51,-17.89 9.64,-20.03 9.82,-22.62 10.06,-25.77 10.38,-29.66 10.75,-34.55 11.23,-40.74 11.82,-48.66 12.52,-58.79 13.3,-71.57 8.28,-49.55 8.26,-53.61 6.76,-46.87 5.53,-40.36 4.82,-36.58 4.46,-35.01 4.33,-35.11 4.41,-36.63 4.64,-39.64 5.08,-44.48 5.76,-51.81 6.82,-63 8.51,-80.73 11.38,-111.13 14.42,-144.86 14.86,-152.67 15.11,-157.19 15.3,-160.08 15.5,-161.85 15.71,-162.81 15.93,-163.25 15.95,-160.84 15.69,-154.97 15.4,-148.84 15.12,-142.69 14.84,-136.53 14.55,-130.38 14.25,-124.27 13.94,-118.22 13.26,-109.43 12.68,-101.66 11.82,-92.38 10.92,-83.13 10.09,-74.87 9.37,-67.88 8.75,-62.03 8.25,-57.14 7.83,-53.02 7.48,-49.52 7.17,-46.5 6.91,-43.87 6.71,-41.55 6.51,-39.49 6.35,-37.66 6.22,-36.01 6.1,-34.5 6.02,-33.13 5.93,-31.87 5.87,-30.71 5.83,-29.64 5.8,-28.62 5.77,-27.67 5.78,-26.78 5.79,-25.93 5.82,-25.11 5.86,-24.31 5.91,-23.53 5.98,-22.77 6.07,-21.99 6.17,-21.21 6.29,-20.41 6.44,-19.57 6.59,-18.69 6.78,-17.73 6.98,-16.7 7.23,-15.57 7.48,-14.31 7.79,-12.89 8.14,-11.3 8.53,-9.48 4.8,-4.32 3.83,-2.94 3.83,-2.51 3.12,-1.77 2.53,-1.28 2.17,-0.98 1.98,-0.83 1.87,-0.73 1.83,-0.66 1.86,-0.64 1.94,-0.63 2.07,-0.63 2.26,-0.65 2.55,-0.68 2.92,-0.73 3.42,-0.78 3.98,-0.81 4.5,-0.8 4.8,-0.74 4.9,-0.62 4.9,-0.5 4.88,-0.38 4.82,-0.26 4.76,-0.15 4.7,-0.04 4.64,0.05 4.58,0.14 4.53,0.23 4.48,0.3 4.43,0.39 4.38,0.45 4.44,0.54 4.65,0.64 4.93,0.77 5.28,0.92 4.91,0.95 4.48,0.93 4.2,0.94 4.02,0.96 3.98,0.99 4.02,1.06 4.15,1.14 4.37,1.27 4.7,1.43 5.17,1.65 5.82,1.95 6.73,2.39 8.07,3.04 10.11,4.09 13.4,5.9 19.31,9.45 29.74,16.78 30.72,20.3 30.89,23.67 30.99,27.27 31.08,31.24 31.16,35.61 31.23,40.51 31.3,45.96 31.37,52.07 30.47,57 28.84,60.45 27.32,63.64 25.94,66.76 24.76,69.95 23.76,73.24 22.87,76.62 22.12,80.09 21.47,83.63 20.89,87.25 20.42,90.91 20.02,94.6 19.69,98.32 19.44,102.02 19.26,105.69 19.17,109.29 19.18,112.79 19.29,116.1 19.5,119.2 19.85,122.05 19.15,117.34 18.59,112.49 18.58,110.47 19.17,111.11 20.33,114.24 21.29,115.52 21.66,112.98 22.07,110.4 22.52,107.9 23.04,105.55 23.64,103.32 24.29,101.21 25.02,99.13 25.48,95.87 24.54,87.72 23.54,80.11 22.54,73.1 21.66,67.07 20.86,61.81 20.17,57.25 19.58,53.29 19.05,49.8 18.63,46.75 18.25,44.05 17.96,41.66 17.71,39.56 17.54,37.67 17.4,35.97 17.33,34.46 17.31,33.09 17.32,31.83 17.36,30.67 17.43,29.59 17.54,28.57 17.65,27.59 17.79,26.65 17.92,25.73 18.07,24.83 18.22,23.94 18.35,23.07 18.5,22.19 18.64,21.34 18.76,20.46 18.9,19.61 19.02,18.78 19.14,17.92 19.24,17.09 19.37,16.27 19.47,15.44 19.57,14.63 19.68,13.81 19.79,12.99 19.88,12.19 19.99,11.39 20.1,10.56 20.19,9.75 20.32,8.92 20.39,8.07 19.81,6.97 19.17,5.93 18.44,4.95 17.71,4.02 16.99,3.17 16.32,2.4 15.67,1.69 15.08,1.04 14.52,0.43 13.99,-0.13 13.53,-0.67 13.08,-1.16 12.67,-1.65 12.31,-2.1 11.96,-2.56 11.65,-3 11.35,-3.44 11.1,-3.86 10.84,-4.31 10.62,-4.76 10.42,-5.22 10.23,-5.69 10.06,-6.21 9.91,-6.72 9.77,-7.27 9.66,-7.89 9.55,-8.52 9.46,-9.23 9.4,-10.02 9.35,-10.87 9.32,-11.85 9.33,-12.96 9.34,-14.21 9.39,-15.68 9.47,-17.39 9.6,-19.41 9.76,-21.86 9.99,-24.82 10.27,-28.45 10.62,-33.01 11.08,-38.76 11.62,-46.08 12.29,-55.5 13.05,-67.43 9.15,-52.87 9.14,-57.76 5.85,-39.55 5.85,-41.59 5.13,-38.11 4.62,-35.66 4.38,-34.88 4.34,-35.6 4.49,-37.73 4.8,-41.47 5.33,-47.25 6.16,-56.03 7.45,-69.54 9.53,-91.6 13.27,-131.29 14.66,-148.96 15,-155.01 15.19,-158.73 15.4,-161.1 15.58,-162.51 15.81,-163.23 16.05,-163.53 15.86,-158.64 15.56,-152.58 15.29,-146.49 15.01,-140.35 14.72,-134.19 14.43,-128.07 14.13,-121.99 13.66,-114.82 12.97,-106.05 12.39,-98.59 11.4,-88.33 10.54,-79.68 9.74,-71.78 9.07,-65.38 8.51,-59.94 8.04,-55.43 7.66,-51.58 7.32,-48.31 7.04,-45.48 6.82,-43 6.6,-40.79 6.44,-38.85 6.28,-37.09 6.16,-35.52 6.05,-34.06 5.97,-32.75 5.91,-31.54 5.84,-30.41 5.8,-29.37 5.79,-28.4 5.77,-27.48 5.78,-26.6 5.8,-25.77 5.83,-24.98 5.87,-24.18 5.94,-23.43 6.01,-22.67 6.12,-21.9 6.22,-21.12 6.35,-20.33 6.5,-19.49 6.68,-18.59 6.86,-17.64 7.09,-16.6 7.33,-15.45 7.62,-14.18 7.94,-12.73 8.3,-11.13 5.94,-6.6 4.58,-4.35 3.62,-3.01 3.63,-2.65 2.98,-1.94 2.46,-1.45 2.13,-1.17 1.95,-1 1.86,-0.9 1.84,-0.85 1.87,-0.83 1.95,-0.83 2.09,-0.84 2.32,-0.9 2.6,-0.97 3.01,-1.04 3.5,-1.17 4.09,-1.25 4.56,-1.29 4.83,-1.25 4.91,-1.14 4.9,-1.03 4.86,-0.9 4.81,-0.79 4.75,-0.68 4.68,-0.58 4.64,-0.49 4.58,-0.38 4.51,-0.3 4.47,-0.23 4.42,-0.14 4.37,-0.09 4.47,0 4.7,0.07 4.97,0.15 5.35,0.26 4.83,0.31 4.41,0.34 4.15,0.38 4.01,0.42 3.98,0.45 4.03,0.51 4.18,0.58 4.42,0.67 4.77,0.77 5.26,0.93 5.96,1.14 6.93,1.44 8.38,1.91 10.56,2.67 14.2,4.03 20.83,6.83 30.04,11.76 30.77,14.46 30.92,17.09 31.02,19.89 31.11,22.9 31.19,26.22 31.26,29.86 31.34,33.91 31.4,38.43 31.48,43.49 31.58,49.21 31.37,55.1 29.76,58.68 28.23,62.03 26.77,65.14 25.52,68.36 24.42,71.63 23.47,74.98 22.64,78.42 21.93,81.95 21.31,85.51 20.77,89.16 20.32,92.82 19.93,96.53 19.64,100.22 19.42,103.91 19.26,107.54 19.22,111.07 19.25,114.48 19.4,117.7 19.67,120.67 19.73,121.21 18.88,115.09 18.55,111.4 18.81,110.59 19.64,112.33 21.05,116.52 21.45,114.34 21.82,111.73 22.26,109.17 22.74,106.76 23.29,104.5 23.92,102.32 24.61,100.24 25.36,98.19 25.05,92.12 24.09,84.21 23.08,76.85 22.13,70.31 21.29,64.62 20.54,59.71 19.89,55.43 19.34,51.68 18.86,48.4 18.45,45.51 18.12,42.95 17.84,40.7 17.62,38.69 17.48,36.9 17.37,35.28 17.32,33.84 17.3,32.51 17.32,31.3 17.39,30.19 17.48,29.12 17.59,28.13 17.71,27.18 17.84,26.23 17.99,25.34 18.14,24.43 18.27,23.56 18.42,22.68 18.56,21.81 18.7,20.95 18.82,20.09 18.95,19.24 19.08,18.4 19.18,17.55 19.3,16.73 19.41,15.9 19.52,15.08 19.62,14.26 19.72,13.45 19.83,12.65 19.93,11.83 20.04,11.02 20.14,10.21 20.29,9.39 20.3,8.55 20.2,7.58 19.5,6.51 18.8,5.49 18.2,4.53 17.3,3.65 16.7,2.82 16.1,2.1 15.4,1.39 14.8,0.77 14.3,0.18 13.8,-0.37 13.3,-0.88 12.9,-1.38 12.5,-1.85 12.2,-2.3 11.8,-2.74 11.5,-3.19 11.3,-3.62 10.9,-4.07 10.8,-4.5 10.5,-4.95 10.4,-5.43 10.1,-5.91 10,-6.42 9.8,-6.96 9.8,-7.53 9.6,-8.15 9.5,-8.83 9.4,-9.56 9.4,-10.37 9.3,-11.29 9.4,-12.31 9.3,-13.47 9.3,-14.83 9.5,-16.37 9.5,-18.23 9.6,-20.41 9.9,-23.06 10.1,-26.3 10.4,-30.29 10.8,-35.32 11.3,-41.7 11.9,-49.87 12.6,-60.32 13.4,-73.41 7.9,-48.22 8,-51.94 6.5,-45.63 5.4,-39.66 4.7,-36.25 4.5,-34.94 4.3,-35.25 4.4,-36.95 4.7,-40.19 5.2,-45.32 5.9,-53.08 7,-64.95 8.8,-83.93 11.9,-116.95 14.5,-146.16 14.9,-153.47 15.1,-157.75 15.4,-160.49 15.5,-162.16 15.7,-163.06 16,-163.47 15.9,-160.4 15.7,-154.5 15.4,-148.4 15.1,-142.26 14.8,-136.13 14.5,-130 14.2,-123.88 13.9,-117.86 13.2,-108.6 12.6,-101.08 11.7,-91.28 10.8,-82.25 10,-74.06 9.2,-67.25 8.7,-61.53 8.2,-56.76 7.7,-52.72 7.5,-49.29 7.1,-46.32 6.9,-43.74 6.6,-41.47 6.5,-39.44 6.4,-37.61 6.2,-36 6,-34.51 6,-33.15 6,-31.91 5.8,-30.75 5.8,-29.7 5.8,-28.7 5.8,-27.76 5.8,-26.88 5.8,-26.02 5.8,-25.22 5.8,-24.44 6,-23.67 5.9,-22.91 6.1,-22.14 6.2,-21.38 6.3,-20.59 6.5,-19.75 6.6,-18.89 6.8,-17.95 7,-16.94 7.3,-15.83 7.5,-14.59 7.8,-13.22 8.2,-11.66 6.7,-7.98 5,-4.99 3.9,-3.39 3.9,-2.97 3.2,-2.13 2.6,-1.55 2.2,-1.23 2,-1.03 1.8,-0.93 1.9,-0.86 1.8,-0.83 2,-0.83 2,-0.85 2.3,-0.89 2.5,-0.94 2.9,-1.04 3.4,-1.14 3.9,-1.24 4.5,-1.3 4.8,-1.28 4.9,-1.17 4.9,-1.07 4.8,-0.94 4.9,-0.83 4.7,-0.72 4.7,-0.61 4.7,-0.51 4.6,-0.42 4.5,-0.33 4.5,-0.26 4.4,-0.17 4.4,-0.11 4.4,-0.02 4.6,0.03 5,0.12 5.2,0.21 5,0.29 4.5,0.33 4.2,0.36 4,0.39 4,0.44 4,0.49 4.1,0.55 4.4,0.62 4.6,0.73 5.1,0.87 5.8,1.07 6.6,1.33 8,1.75 9.9,2.4 13,3.55 18.7,5.81 29.2,10.87 30.7,13.74 30.9,16.34 31,19.08 31.1,22.04 31.2,25.24 31.2,28.78 31.3,32.71 31.4,37.08 31.5,41.99 31.5,47.49 31.7,53.73 30.2,57.69 28.7,61.1 27.1,64.24 25.9,67.44 24.7,70.68 23.8,74.01 22.8,77.43 22.2,80.94 21.4,84.49 20.9,88.1 20.5,91.77 20,95.47 19.7,99.17 19.5,102.85 19.3,106.51 19.2,110.07 19.3,113.53 19.3,116.79 19.6,119.86 20,122.62 19,116.64 18.6,112.15 18.7,110.54 19.3,111.6 20.6,115.09 21.4,115.02 21.7,112.45 22.1,109.89 22.6,107.44 23.1,105.13 23.7,102.94 24.4,100.84 25.2,98.78 25.3,94.51 24.4,86.45 23.3,78.93 22.4,72.11 21.6,66.19 20.7,61.07 20.1,56.6 19.5,52.72 19,49.3 18.5,46.31 18.2,43.67 17.9,41.33 17.7,39.24 17.5,37.39 17.4,35.74 17.4,34.24 17.3,32.88 17.3,31.64 17.3,30.5 17.5,29.43 17.5,28.42 17.7,27.44 17.8,26.51 18,25.59 18.1,24.69 18.2,23.81 3.9,4.96"
         style="fill:none;stroke:#edb120;stroke-width:30;stroke-linecap:butt;stroke-linejoin:round;stroke-miterlimit:10;stroke-dasharray:none;stroke-opacity:1"
         id="path210"
         inkscape:connector-curvature="0" /><path
         d="m 12082.5,5835 855,0 0,555 -855,0 0,-555 z"
         style="fill:#ffffff;fill-opacity:1;fill-rule:nonzero;stroke:none"
         id="path212"
         inkscape:connector-curvature="0" /><g
         id="g214"
         transform="scale(10,10)"><text
           transform="matrix(1,0,0,-1,1236,624)"
           style="font-variant:normal;font-weight:normal;font-size:14.39999962px;font-family:Helvetica;-inkscape-font-specification:Helvetica;writing-mode:lr-tb;fill:#000000;fill-opacity:1;fill-rule:nonzero;stroke:none"
           id="text216"><tspan
             x="0 10.3968 17.5968 24.796801 34.4016"
             y="0"
             sodipodi:role="line"
             id="tspan218">CycET</tspan></text>
</g><path
         d="m 12112.5,6288.75 225,0"
         style="fill:none;stroke:#0072bd;stroke-width:30;stroke-linecap:butt;stroke-linejoin:round;stroke-miterlimit:10;stroke-dasharray:none;stroke-opacity:1"
         id="path220"
         inkscape:connector-curvature="0" /><g
         id="g222"
         transform="scale(10,10)"><text
           transform="matrix(1,0,0,-1,1236,606.375)"
           style="font-variant:normal;font-weight:normal;font-size:14.39999962px;font-family:Helvetica;-inkscape-font-specification:Helvetica;writing-mode:lr-tb;fill:#000000;fill-opacity:1;fill-rule:nonzero;stroke:none"
           id="text224"><tspan
             x="0 10.3968 18.4032 25.603201 33.6096 41.616001"
             y="0"
             sodipodi:role="line"
             id="tspan226">Cdc20A</tspan></text>
</g><path
         d="m 12112.5,6112.5 225,0"
         style="fill:none;stroke:#d95319;stroke-width:30;stroke-linecap:butt;stroke-linejoin:round;stroke-miterlimit:10;stroke-dasharray:none;stroke-opacity:1"
         id="path228"
         inkscape:connector-curvature="0" /><g
         id="g230"
         transform="scale(10,10)"><text
           transform="matrix(1,0,0,-1,1236,588.75)"
           style="font-variant:normal;font-weight:normal;font-size:14.39999962px;font-family:Helvetica;-inkscape-font-specification:Helvetica;writing-mode:lr-tb;fill:#000000;fill-opacity:1;fill-rule:nonzero;stroke:none"
           id="text232"><tspan
             x="0 10.3968 17.5968 24.796801"
             y="0"
             sodipodi:role="line"
             id="tspan234">CycA</tspan></text>
</g><path
         d="m 12112.5,5936.25 225,0"
         style="fill:none;stroke:#edb120;stroke-width:30;stroke-linecap:butt;stroke-linejoin:round;stroke-miterlimit:10;stroke-dasharray:none;stroke-opacity:1"
         id="path236"
         inkscape:connector-curvature="0" /><path
         d="m 12082.5,5835 855,0 0,555 -855,0 0,-555 z"
         style="fill:none;stroke:#262626;stroke-width:5.00250006;stroke-linecap:butt;stroke-linejoin:miter;stroke-miterlimit:10;stroke-dasharray:none;stroke-opacity:1"
         id="path238"
         inkscape:connector-curvature="0" /></g></g></svg>